<svg width="46" height="47" viewBox="0 0 46 47" fill="none" xmlns="http://www.w3.org/2000/svg">
<mask id="mask0_1_219" style="mask-type:alpha" maskUnits="userSpaceOnUse" x="0" y="0" width="46" height="47">
<ellipse cx="23" cy="23.5" rx="23" ry="23.5" fill="#D9D9D9"/>
</mask>
<g mask="url(#mask0_1_219)">
<rect y="31.3333" width="31.3333" height="46" transform="rotate(-90 0 31.3333)" fill="#31373D"/>
<rect y="15.6667" width="7.83333" height="46" transform="rotate(-90 0 15.6667)" fill="#F1B434"/>
<rect y="47" width="7.83333" height="46" transform="rotate(-90 0 47)" fill="#DD2033"/>
<rect y="23.5" width="7.83333" height="46" transform="rotate(-90 0 23.5)" fill="#DD2033"/>
<rect y="39.1667" width="7.83333" height="46" transform="rotate(-90 0 39.1667)" fill="#F1B434"/>
<ellipse cx="22.361" cy="23.5" rx="12.7778" ry="13.0556" fill="#F5F7F8"/>
<path fill-rule="evenodd" clip-rule="evenodd" d="M23.5219 26.5403L21.8029 24.5643L22.2804 24.1306L23.9994 26.1066C24.5206 26.7057 24.155 27.6559 23.374 27.7319L18.8467 28.1724C18.6233 28.1942 18.4909 28.4382 18.5913 28.6433L18.8134 29.0974L18.242 29.3893L18.0198 28.9352C17.7188 28.3201 18.116 27.5878 18.7861 27.5226L23.3134 27.082C23.5737 27.0567 23.6956 26.74 23.5219 26.5403Z" fill="#31373D"/>
<path d="M19.8055 27.9378V27.9378C19.3632 27.9378 19.074 28.4013 19.2684 28.7986L19.4861 29.2433" stroke="#31373D"/>
<path d="M19.8054 27.9378L20.1249 28.5906" stroke="#31373D"/>
<path fill-rule="evenodd" clip-rule="evenodd" d="M25.8127 28.4289C26.9927 27.7613 27.7916 26.4761 27.7916 25.0003C27.7916 22.8371 26.0754 21.0836 23.9583 21.0836C22.818 21.0836 21.794 21.5923 21.0918 22.3997C23.7618 22.5725 25.875 24.8398 25.875 27.6114C25.875 27.8895 25.8537 28.1626 25.8127 28.4289Z" fill="#31373D"/>
<path fill-rule="evenodd" clip-rule="evenodd" d="M22.002 18.0823C20.4463 18.3743 19.1683 19.6391 18.9081 21.3261C18.5787 23.4629 20.007 25.4679 22.0983 25.8046C23.5713 26.0416 24.9803 25.3878 25.7998 24.2338C23.2366 23.6022 21.5373 21.0532 21.9548 18.3455C21.9684 18.2569 21.9842 18.1692 22.002 18.0823Z" fill="#31373D"/>
<path d="M23.5098 15.9522C23.2772 14.7129 22.1055 13.901 20.8926 14.1386L21.3137 16.3824L23.5098 15.9522Z" fill="#DD2033"/>
<ellipse cx="21.0833" cy="16.8405" rx="1.59722" ry="1.63194" fill="#31373D"/>
<path d="M18.2083 17.8197L20.1249 16.5142L20.7638 17.4933L18.2083 17.8197Z" fill="#31373D"/>
<path fill-rule="evenodd" clip-rule="evenodd" d="M25.1558 24.9387C25.6125 25.7205 25.875 26.6347 25.875 27.6114C25.875 27.8895 25.8537 28.1626 25.8127 28.429C26.9927 27.7613 27.7916 26.4761 27.7916 25.0003C27.7916 23.846 27.3029 22.8083 26.5253 22.0914C26.5193 22.2417 26.5047 22.3931 26.4813 22.5453C26.3311 23.519 25.8418 24.3521 25.1558 24.9387Z" fill="#DD2033"/>
<path d="M22.0415 24.3475V31.528M22.0415 31.528H19.8054M22.0415 31.528L21.0832 32.8336M22.0415 31.528L23.3193 31.8544" stroke="#31373D"/>
</g>
</svg>
